<svg width="174" height="41" viewBox="0 0 174 41" fill="none" xmlns="http://www.w3.org/2000/svg">
<path d="M50.3922 11.5514H54.787V29.8888H50.3922V11.5514ZM56.5303 22.965C56.5303 18.4298 59.2257 15.7238 63.3861 15.7238C67.5466 15.7238 70.242 18.4298 70.242 22.965C70.242 27.5002 67.6052 30.2213 63.3861 30.2213C59.1671 30.2213 56.5303 27.5758 56.5303 22.965ZM65.8326 22.965C65.8326 20.4706 64.8804 19.0043 63.3861 19.0043C61.8919 19.0043 60.9544 20.516 60.9544 22.965C60.9544 25.414 61.8773 26.8955 63.3861 26.8955C64.895 26.8955 65.8326 25.5047 65.8326 22.9801V22.965ZM71.8974 30.7807H76.1164C76.3172 31.241 76.6567 31.6221 77.0843 31.8673C77.5119 32.1124 78.0048 32.2085 78.4896 32.1412C80.1597 32.1412 81.0386 31.204 81.0386 29.8434V27.3037H80.9507C80.6006 28.0821 80.0324 28.7343 79.3195 29.1762C78.6067 29.6181 77.7818 29.8295 76.9514 29.7829C73.7432 29.7829 71.6191 27.2583 71.6191 22.9197C71.6191 18.581 73.6407 15.8447 77.01 15.8447C77.8664 15.8101 78.7126 16.0464 79.4353 16.5219C80.1579 16.9974 80.7224 17.6895 81.0533 18.5054V15.9808H85.4481V29.7376C85.4481 33.0483 82.6207 35.1042 78.4457 35.1042C74.5636 35.1042 72.1465 33.3053 71.8974 30.7958V30.7807ZM81.0533 22.9499C81.0533 20.7428 80.0718 19.352 78.5189 19.352C76.9661 19.352 76.0139 20.7276 76.0139 22.9499C76.0139 25.1721 76.9514 26.4269 78.5189 26.4269C80.0864 26.4269 81.0533 25.2024 81.0533 22.965V22.9499ZM87.1034 22.9499C87.1034 18.4147 89.7989 15.7087 93.9593 15.7087C98.1197 15.7087 100.83 18.4147 100.83 22.9499C100.83 27.4851 98.193 30.2062 93.9593 30.2062C89.7257 30.2062 87.1034 27.5758 87.1034 22.965V22.9499ZM96.4058 22.9499C96.4058 20.4555 95.4536 18.9892 93.9593 18.9892C92.4651 18.9892 91.6008 20.516 91.6008 22.9801C91.6008 25.4443 92.5237 26.9106 94.0179 26.9106C95.5122 26.9106 96.4058 25.5047 96.4058 22.9801V22.9499ZM102.5 12.6852C102.488 12.2273 102.609 11.7762 102.846 11.3891C103.083 11.0019 103.427 10.6962 103.832 10.5106C104.238 10.325 104.688 10.268 105.126 10.3466C105.563 10.4253 105.968 10.6362 106.289 10.9526C106.61 11.269 106.832 11.6766 106.929 12.1237C107.025 12.5709 106.99 13.0375 106.829 13.4643C106.668 13.8912 106.388 14.259 106.024 14.5214C105.66 14.7837 105.229 14.9286 104.785 14.9377C104.491 14.9586 104.196 14.9164 103.918 14.8139C103.641 14.7114 103.386 14.5508 103.172 14.3421C102.957 14.1334 102.787 13.8812 102.671 13.6012C102.555 13.3213 102.497 13.0197 102.5 12.7155V12.6852ZM102.5 16.011H106.895V29.8888H102.5V16.011ZM122.848 22.9499C122.848 27.4851 120.899 30.0702 117.559 30.0702C116.703 30.1269 115.85 29.9108 115.117 29.4512C114.383 28.9916 113.804 28.3105 113.458 27.5002H113.37V34.3332H108.975V15.9808H113.37V18.46H113.458C113.788 17.6363 114.356 16.9376 115.085 16.4588C115.813 15.98 116.667 15.7445 117.53 15.7843C120.899 15.8447 122.906 18.4449 122.906 22.9801L122.848 22.9499ZM118.453 22.9499C118.453 20.7428 117.472 19.3368 115.933 19.3368C114.395 19.3368 113.414 20.7579 113.399 22.9499C113.384 25.1419 114.395 26.5478 115.933 26.5478C117.472 26.5478 118.453 25.1721 118.453 22.9801V22.9499ZM130.392 15.6936C134.04 15.6936 136.252 17.4774 136.355 20.3346H132.355C132.355 19.352 131.564 18.7322 130.348 18.7322C129.132 18.7322 128.59 19.2159 128.59 19.9264C128.59 20.6369 129.074 20.8637 130.055 21.0753L132.868 21.6649C135.549 22.2545 136.691 23.3732 136.691 25.4745C136.691 28.3468 134.157 30.1911 130.422 30.1911C126.686 30.1911 124.24 28.3468 124.049 25.5198H128.283C128.415 26.5478 129.206 27.1525 130.495 27.1525C131.784 27.1525 132.37 26.7141 132.37 25.9885C132.37 25.2628 131.96 25.1117 130.905 24.8849L128.371 24.3256C125.748 23.7662 124.371 22.3301 124.371 20.2137C124.401 17.4925 126.759 15.7238 130.392 15.7238V15.6936ZM151.355 29.8585H147.122V27.2735H147.034C146.801 28.1414 146.288 28.901 145.579 29.4263C144.87 29.9515 144.008 30.2107 143.137 30.1609C142.469 30.2 141.801 30.0908 141.178 29.8407C140.555 29.5905 139.991 29.2052 139.524 28.7108C139.058 28.2164 138.699 27.6244 138.473 26.9748C138.248 26.3252 138.159 25.6331 138.215 24.9454V15.9808H142.61V23.9023C142.61 25.5501 143.43 26.4269 144.793 26.4269C145.112 26.4276 145.428 26.3577 145.719 26.2221C146.01 26.0865 146.27 25.8882 146.481 25.6406C146.692 25.3929 146.849 25.1016 146.942 24.7862C147.035 24.4707 147.061 24.1384 147.019 23.8116V15.9808H151.414L151.355 29.8585ZM153.48 15.9808H157.728V18.6566H157.816C158.049 17.8001 158.551 17.0477 159.243 16.517C159.935 15.9863 160.777 15.7074 161.639 15.7238C162.516 15.6513 163.387 15.9222 164.08 16.4824C164.772 17.0426 165.234 17.8512 165.375 18.7473H165.463C165.729 17.8417 166.279 17.053 167.027 16.5056C167.775 15.9582 168.678 15.6832 169.594 15.7238C170.192 15.7031 170.787 15.8124 171.341 16.0445C171.895 16.2767 172.395 16.6266 172.81 17.0714C173.224 17.5162 173.544 18.0461 173.747 18.6265C173.95 19.2069 174.032 19.8249 173.989 20.4404V29.8888H169.594V21.6498C169.594 20.1381 168.935 19.4427 167.704 19.4427C167.43 19.4403 167.158 19.4986 166.907 19.6138C166.657 19.729 166.433 19.8983 166.251 20.1104C166.069 20.3224 165.933 20.5723 165.853 20.8431C165.773 21.1138 165.749 21.3992 165.785 21.68V29.8888H161.61V21.5893C161.61 20.1985 160.951 19.4427 159.75 19.4427C159.472 19.4428 159.198 19.5036 158.945 19.6211C158.692 19.7386 158.465 19.9102 158.281 20.1245C158.097 20.3387 157.959 20.5909 157.876 20.8642C157.794 21.1376 157.768 21.4259 157.801 21.7103V29.8888H153.406L153.48 15.9808Z" fill="white"/>
<path d="M38.1013 12.3829C37.3558 10.6238 36.3691 8.9844 35.1715 7.5151C33.401 5.27825 31.1916 3.45367 28.6886 2.16146C26.1857 0.869246 23.4459 0.1387 20.6496 0.0179001C17.8533 -0.1029 15.0639 0.388783 12.465 1.46059C9.86614 2.5324 7.51669 4.16004 5.57129 6.23637C3.62589 8.3127 2.12865 10.7907 1.17813 13.5071C0.227602 16.2236 -0.154663 19.117 0.0564947 21.9969C0.267652 24.8769 1.06744 27.678 2.40323 30.2159C3.73901 32.7539 5.5805 34.9712 7.8065 36.7218C9.23482 37.8675 10.8131 38.7989 12.4943 39.4883C14.8514 40.4851 17.3741 40.9985 19.9215 41C25.1797 40.988 30.2189 38.8251 33.9343 34.9853C37.6497 31.1455 39.7382 25.9422 39.7421 20.516C39.7459 17.7171 39.1873 14.9477 38.1013 12.3829ZM19.9069 4.17416C22.1944 4.17391 24.4544 4.68987 26.5284 5.6859C26.0226 5.9114 25.4909 6.0689 24.9462 6.15454C23.154 6.42226 21.4938 7.2809 20.2133 8.60229C18.9328 9.92369 18.1007 11.637 17.8413 13.4864C17.7274 14.5237 17.2703 15.4886 16.547 16.2184C15.8238 16.9483 14.8787 17.3983 13.8713 17.4925C12.0791 17.7603 10.4189 18.6189 9.13838 19.9403C7.85788 21.2617 7.02583 22.975 6.7664 24.8244C6.67856 25.8107 6.2708 26.7375 5.6091 27.4549C4.46741 24.9654 3.95453 22.2184 4.11819 19.4695C4.28186 16.7205 5.11673 14.0589 6.54514 11.7325C7.97355 9.40597 9.94906 7.49018 12.2878 6.16338C14.6266 4.83658 17.2526 4.14188 19.9215 4.14393L19.9069 4.17416ZM7.79185 31.0981C7.96764 30.9319 8.14344 30.7807 8.31923 30.5993C9.62251 29.2953 10.4591 27.5741 10.6924 25.7164C10.787 24.6721 11.2388 23.6968 11.9669 22.965C12.6675 22.2124 13.6105 21.7501 14.6184 21.6649C16.4107 21.3972 18.0709 20.5386 19.3514 19.2172C20.6319 17.8958 21.4639 16.1825 21.7234 14.333C21.7867 13.2408 22.2409 12.2118 22.9979 11.4456C23.7158 10.7077 24.6678 10.2621 25.6787 10.1909C27.3252 9.9571 28.8607 9.20176 30.0735 8.02909C31.4544 9.21137 32.6244 10.6336 33.5307 12.2317C33.4751 12.3093 33.4112 12.3803 33.3403 12.4433C32.641 13.2025 31.6992 13.6751 30.6888 13.7737C28.8947 14.0367 27.232 14.8938 25.9506 16.2161C24.6693 17.5384 23.8387 19.2542 23.5838 21.1056C23.4806 22.1463 23.0319 23.1182 22.3137 23.8566C21.5955 24.5949 20.652 25.0544 19.6432 25.157C17.8457 25.4227 16.1793 26.2796 14.8914 27.6005C13.6035 28.9214 12.7628 30.6357 12.4943 32.4889C12.4154 33.2278 12.1696 33.9372 11.7765 34.56C10.2734 33.6391 8.9273 32.4696 7.79185 31.0981ZM19.9069 36.9334C18.4203 36.9351 16.941 36.7214 15.5121 36.2985C16.0008 35.3582 16.3186 34.3335 16.4496 33.275C16.5523 32.2366 16.9989 31.2666 17.7141 30.5285C18.4293 29.7904 19.3694 29.3295 20.3756 29.2236C22.1705 28.9589 23.8341 28.1016 25.1174 26.7799C26.4008 25.4583 27.235 23.7433 27.4952 21.8917C27.5979 20.8533 28.0445 19.8832 28.7597 19.1451C29.4749 18.4071 30.415 17.9462 31.4212 17.8402C32.7719 17.6589 34.0593 17.14 35.1715 16.3285C35.789 18.7441 35.8622 21.2736 35.3853 23.7229C34.9085 26.1722 33.8942 28.4763 32.4205 30.4583C30.9468 32.4403 29.0527 34.0477 26.8835 35.157C24.7143 36.2663 22.3278 36.8481 19.9069 36.8579V36.9334Z" fill="#F2726F"/>
</svg>
